<svg id="favicon-svg" height="512" width="512" xmlns="http://www.w3.org/2000/svg" version="1.1">
  <path id="rect-background" style="fill:#092e20" d="m 20,0 h 472 c 11.08,0 20,8.92 20,20 v 472 c 0,11.08 -8.92,20 -20,20 H 20 C 8.92,512 0,503.08 0,492 V 20 C 0,8.92 8.92,0 20,0 Z" />
  <g id="text-full" aria-label="CCBV">
    <path id="text-c" style="fill:#cfb955" d="m 75.1,368.4 q -8.1,0 -16.5,-1.8 -8.1,-1.5 -15.3,-5.4 Q 36.4,357 30.7,350.7 25.3,344.1 22,336.6 18.7,329.1 17.5,321 16.3,312.6 16.3,304.5 V 207 q 0,-8.1 1.2,-16.2 1.2,-8.4 4.5,-15.9 3.3,-7.5 8.7,-13.8 5.7,-6.6 12.6,-10.5 7.2,-4.2 15.3,-5.7 8.4,-1.8 16.5,-1.8 7.8,0 15.3,1.5 7.8,1.2 14.7,4.8 6.9,3.3 12.3,9 5.7,5.4 9.3,12.3 3.9,6.6 5.4,14.4 1.8,7.5 1.8,15.3 v 1.8 h -33.3 v -0.9 q 0,-5.4 -1.5,-10.8 -1.5,-5.4 -4.8,-9.6 -3.3,-4.5 -8.7,-6.6 -5.1,-2.4 -10.5,-2.4 -4.2,0 -8.1,1.2 -3.9,1.2 -6.9,3.9 -3,2.7 -5.1,6.3 -2.1,3.6 -3.3,7.5 -1.2,3.9 -1.8,8.1 -0.3,3.9 -0.3,8.1 v 97.5 q 0,4.2 0.3,8.4 0.6,3.9 1.8,7.8 1.2,3.9 3.3,7.5 2.1,3.6 5.1,6.3 3,2.7 6.9,3.9 3.9,1.2 8.1,1.2 5.4,0 10.5,-2.1 5.4,-2.4 8.7,-6.6 3.3,-4.5 4.8,-9.9 1.5,-5.4 1.5,-10.8 v -0.9 h 33.3 v 1.8 q 0,7.8 -1.8,15.6 -1.5,7.5 -5.4,14.4 -3.6,6.6 -9.3,12.3 -5.4,5.4 -12.3,9 -6.9,3.3 -14.7,4.5 -7.5,1.5 -15.3,1.5 z" />
    <path id="text-cbv" style="fill:#ffffff" d="m 196.76666,368.4 q -8.1,0 -16.5,-1.8 -8.1,-1.5 -15.3,-5.4 -6.9,-4.2 -12.6,-10.5 -5.4,-6.6 -8.7,-14.1 -3.3,-7.5 -4.5,-15.6 -1.2,-8.4 -1.2,-16.5 V 207 q 0,-8.1 1.2,-16.2 1.2,-8.4 4.5,-15.9 3.3,-7.5 8.7,-13.8 5.7,-6.6 12.6,-10.5 7.2,-4.2 15.3,-5.7 8.4,-1.8 16.5,-1.8 7.8,0 15.3,1.5 7.8,1.2 14.7,4.8 6.9,3.3 12.3,9 5.7,5.4 9.3,12.3 3.9,6.6 5.4,14.4 1.8,7.5 1.8,15.3 v 1.8 h -33.3 v -0.9 q 0,-5.4 -1.5,-10.8 -1.5,-5.4 -4.8,-9.6 -3.3,-4.5 -8.7,-6.6 -5.1,-2.4 -10.5,-2.4 -4.2,0 -8.1,1.2 -3.9,1.2 -6.9,3.9 -3,2.7 -5.1,6.3 -2.1,3.6 -3.3,7.5 -1.2,3.9 -1.8,8.1 -0.3,3.9 -0.3,8.1 v 97.5 q 0,4.2 0.3,8.4 0.6,3.9 1.8,7.8 1.2,3.9 3.3,7.5 2.1,3.6 5.1,6.3 3,2.7 6.9,3.9 3.9,1.2 8.1,1.2 5.4,0 10.5,-2.1 5.4,-2.4 8.7,-6.6 3.3,-4.5 4.8,-9.9 1.5,-5.4 1.5,-10.8 v -0.9 h 33.3 v 1.8 q 0,7.8 -1.8,15.6 -1.5,7.5 -5.4,14.4 -3.6,6.6 -9.3,12.3 -5.4,5.4 -12.3,9 -6.9,3.3 -14.7,4.5 -7.5,1.5 -15.3,1.5 z M 262.03333,366 V 145.5 h 52.8 q 7.8,0 15.6,1.5 8.1,1.5 15,5.1 7.2,3.6 12.6,9.6 5.7,5.7 9,12.9 3.6,6.9 4.8,15 1.5,7.8 1.5,15.6 0,6.9 -1.2,13.8 -0.9,6.6 -3.9,12.6 -3,6 -7.8,11.1 -4.5,4.8 -10.5,8.4 7.5,3.3 13.8,8.4 6.3,5.1 10.2,12 4.2,6.9 5.7,15 1.8,7.8 1.8,15.9 0,8.7 -1.8,17.4 -1.5,8.7 -5.7,16.5 -4.2,7.5 -10.8,13.5 -6.6,6 -14.4,9.9 -7.8,3.6 -16.5,5.1 -8.7,1.2 -17.4,1.2 z m 33.3,-128.4 h 19.5 q 5.7,0 11.1,-2.4 5.4,-2.7 8.4,-7.5 3.3,-4.8 4.5,-10.5 1.2,-5.7 1.2,-11.4 0,-5.7 -1.2,-11.4 -1.2,-5.7 -4.5,-10.2 -3.3,-4.8 -8.7,-7.2 -5.1,-2.7 -10.8,-2.7 h -19.5 z m 0,99.6 h 19.5 q 6.9,0 13.5,-2.1 6.6,-2.4 11.1,-7.5 4.8,-5.1 6.6,-12 2.1,-6.9 2.1,-13.8 0,-6.9 -2.1,-13.5 -1.8,-6.9 -6.3,-12 -4.5,-5.4 -11.4,-7.5 -6.6,-2.4 -13.5,-2.4 h -19.5 z M 460.2,366 h -38.4 l -29.7,-147 -15,-73.5 h 34.2 l 26.7,147 q 0.6,4.2 1.2,8.7 0.9,4.2 1.8,8.4 0.9,-4.2 1.5,-8.4 0.9,-4.5 1.5,-8.7 l 26.7,-147 h 34.2 z" />
  </g>
</svg>
